HIERARCHY
ROOT Hips
{
	OFFSET 0.000000 71.427986 0.000000
	CHANNELS 6 Xposition Yposition Zposition Xrotation Yrotation Zrotation
	JOINT Pelvis
	{
		OFFSET 0.000000 0.000000 0.000000
		CHANNELS 3 Xrotation Yrotation Zrotation
		JOINT LeftUpLeg
		{
			OFFSET 6.797100 -2.508499 -1.318700
			CHANNELS 3 Xrotation Yrotation Zrotation
			JOINT LeftLeg
			{
				OFFSET 0.069008 -29.241863 0.690200
				CHANNELS 3 Xrotation Yrotation Zrotation
				JOINT LeftFoot
				{
					OFFSET -0.069008 -29.568123 -0.266800
					CHANNELS 3 Xrotation Yrotation Zrotation
					JOINT LeftToeBase
					{
						OFFSET 3.145500 -8.631000 16.059900
						CHANNELS 3 Xrotation Yrotation Zrotation
						End Site
						{
							OFFSET 0.000000 18.501587 0.000000
						}
					}
				}
			}
			JOINT Left_ShortSleeve
			{
				OFFSET 0.265923 -10.480953 1.153800
				CHANNELS 3 Xrotation Yrotation Zrotation
				End Site
				{
					OFFSET 1.725763 19.823879 0.000000
				}
			}
		}
		JOINT RightUpLeg
		{
			OFFSET -6.797100 -2.508499 -1.318700
			CHANNELS 3 Xrotation Yrotation Zrotation
			JOINT RightLeg
			{
				OFFSET -0.082453 -29.241932 0.688000
				CHANNELS 3 Xrotation Yrotation Zrotation
				JOINT RightFoot
				{
					OFFSET 0.082453 -29.568058 -0.264600
					CHANNELS 3 Xrotation Yrotation Zrotation
					JOINT RightToeBase
					{
						OFFSET -3.115300 -8.682800 16.113400
						CHANNELS 3 Xrotation Yrotation Zrotation
						End Site
						{
							OFFSET 0.000000 18.567114 0.000000
						}
					}
				}
			}
			JOINT Right_ShortSleeve
			{
				OFFSET -0.265923 -10.480953 1.153800
				CHANNELS 3 Xrotation Yrotation Zrotation
				End Site
				{
					OFFSET -1.725766 19.823910 0.000000
				}
			}
		}
	}
	JOINT Spine
	{
		OFFSET 0.000000 13.368103 0.470500
		CHANNELS 3 Xrotation Yrotation Zrotation
		JOINT Spine1
		{
			OFFSET 0.147000 13.837402 0.538800
			CHANNELS 3 Xrotation Yrotation Zrotation
			JOINT Spine2
			{
				OFFSET 0.168000 16.242897 -1.435500
				CHANNELS 3 Xrotation Yrotation Zrotation
				JOINT Neck
				{
					OFFSET 0.217200 18.631500 -1.679100
					CHANNELS 3 Xrotation Yrotation Zrotation
					JOINT Head
					{
						OFFSET 0.000000 6.599396 1.385900
						CHANNELS 3 Xrotation Yrotation Zrotation
						JOINT Hat
						{
							OFFSET -0.532200 27.220596 -10.096100
							CHANNELS 3 Xrotation Yrotation Zrotation
							End Site
							{
								OFFSET 0.000000 22.029861 0.000000
							}
						}
						JOINT HairD
						{
							OFFSET -10.777400 17.437393 -1.325900
							CHANNELS 3 Xrotation Yrotation Zrotation
							JOINT HairD1
							{
								OFFSET -3.290299 -11.051193 1.062200
								CHANNELS 3 Xrotation Yrotation Zrotation
								End Site
								{
									OFFSET 0.000000 11.579437 0.000000
								}
							}
						}
						JOINT HairB
						{
							OFFSET -10.777400 17.437393 1.467900
							CHANNELS 3 Xrotation Yrotation Zrotation
							JOINT HairB1
							{
								OFFSET -1.561200 -12.956299 3.590200
								CHANNELS 3 Xrotation Yrotation Zrotation
								End Site
								{
									OFFSET 0.000000 13.534866 0.000000
								}
							}
						}
						JOINT HairA
						{
							OFFSET 9.713100 17.437393 1.467900
							CHANNELS 3 Xrotation Yrotation Zrotation
							JOINT HairA1
							{
								OFFSET 1.561200 -12.956299 3.590200
								CHANNELS 3 Xrotation Yrotation Zrotation
								End Site
								{
									OFFSET 0.000000 13.534866 0.000000
								}
							}
						}
						JOINT HairC
						{
							OFFSET 9.713100 17.437393 -1.325900
							CHANNELS 3 Xrotation Yrotation Zrotation
							JOINT HairC1
							{
								OFFSET 3.290300 -11.051193 1.062200
								CHANNELS 3 Xrotation Yrotation Zrotation
								End Site
								{
									OFFSET 0.000000 11.579437 0.000000
								}
							}
						}
					}
				}
				JOINT LeftShoulder
				{
					OFFSET 5.101800 15.108002 -2.763700
					CHANNELS 3 Xrotation Yrotation Zrotation
					JOINT LeftArm
					{
						OFFSET 9.825497 2.506317 -1.597400
						CHANNELS 3 Xrotation Yrotation Zrotation
						JOINT LeftForeArm
						{
							OFFSET 21.966244 0.000000 0.000000
							CHANNELS 3 Xrotation Yrotation Zrotation
							JOINT LeftHand
							{
								OFFSET 33.879036 0.000000 0.000000
								CHANNELS 3 Xrotation Yrotation Zrotation
								JOINT LeftHandThumb1
								{
									OFFSET 6.715286 -2.359680 3.363841
									CHANNELS 3 Xrotation Yrotation Zrotation
									JOINT LeftHandThumb2
									{
										OFFSET 2.507072 -1.447464 1.447461
										CHANNELS 3 Xrotation Yrotation Zrotation
										JOINT LeftHandThumb3
										{
											OFFSET 2.898338 -1.673355 1.673357
											CHANNELS 3 Xrotation Yrotation Zrotation
											End Site
											{
												OFFSET -0.295959 3.727692 -0.131651
											}
										}
									}
								}
								JOINT LeftHandIndex1
								{
									OFFSET 14.190811 -0.254547 3.840278
									CHANNELS 3 Xrotation Yrotation Zrotation
									JOINT LeftHandIndex2
									{
										OFFSET 3.551727 0.000000 -0.000000
										CHANNELS 3 Xrotation Yrotation Zrotation
										JOINT LeftHandIndex3
										{
											OFFSET 2.894196 0.000000 0.000000
											CHANNELS 3 Xrotation Yrotation Zrotation
											End Site
											{
												OFFSET -1.000603 2.690872 0.366626
											}
										}
									}
								}
								JOINT LeftHandMiddle1
								{
									OFFSET 13.776489 0.000000 0.000000
									CHANNELS 3 Xrotation Yrotation Zrotation
									JOINT LeftHandMiddle2
									{
										OFFSET 3.438232 0.000000 0.000000
										CHANNELS 3 Xrotation Yrotation Zrotation
										JOINT LeftHandMiddle3
										{
											OFFSET 3.691551 0.000000 0.000000
											CHANNELS 3 Xrotation Yrotation Zrotation
											End Site
											{
												OFFSET -1.082298 3.499527 0.457670
											}
										}
									}
								}
								JOINT LeftHandRing1
								{
									OFFSET 13.966164 -0.268127 -3.067488
									CHANNELS 3 Xrotation Yrotation Zrotation
									JOINT LeftHandRing2
									{
										OFFSET 3.162567 0.000000 0.000000
										CHANNELS 3 Xrotation Yrotation Zrotation
										JOINT LeftHandRing3
										{
											OFFSET 3.324348 0.000000 0.000000
											CHANNELS 3 Xrotation Yrotation Zrotation
											End Site
											{
												OFFSET -0.861900 3.184998 0.405154
											}
										}
									}
								}
								JOINT LeftHandPinky1
								{
									OFFSET 13.131393 -0.168503 -5.746925
									CHANNELS 3 Xrotation Yrotation Zrotation
									JOINT LeftHandPinky2
									{
										OFFSET 2.849182 0.000000 0.000000
										CHANNELS 3 Xrotation Yrotation Zrotation
										JOINT LeftHandPinky3
										{
											OFFSET 2.805038 0.000000 0.000000
											CHANNELS 3 Xrotation Yrotation Zrotation
											End Site
											{
												OFFSET -0.882500 2.642609 0.325652
											}
										}
									}
								}
							}
							JOINT Left_Sleeve
							{
								OFFSET 6.592125 -0.646545 0.805568
								CHANNELS 3 Xrotation Yrotation Zrotation
								End Site
								{
									OFFSET -0.000179 20.275787 -0.000000
								}
							}
						}
					}
				}
				JOINT RightShoulder
				{
					OFFSET -5.731700 15.108002 -2.763700
					CHANNELS 3 Xrotation Yrotation Zrotation
					JOINT RightArm
					{
						OFFSET -9.825497 2.506317 -1.597400
						CHANNELS 3 Xrotation Yrotation Zrotation
						JOINT RightForeArm
						{
							OFFSET -21.966242 0.000000 0.000000
							CHANNELS 3 Xrotation Yrotation Zrotation
							JOINT RightHand
							{
								OFFSET -33.879032 0.000000 0.000000
								CHANNELS 3 Xrotation Yrotation Zrotation
								JOINT RightHandThumb1
								{
									OFFSET -6.715286 -2.359680 3.363841
									CHANNELS 3 Xrotation Yrotation Zrotation
									JOINT RightHandThumb2
									{
										OFFSET -2.507072 -1.447464 1.447461
										CHANNELS 3 Xrotation Yrotation Zrotation
										JOINT RightHandThumb3
										{
											OFFSET -2.898338 -1.673355 1.673357
											CHANNELS 3 Xrotation Yrotation Zrotation
											End Site
											{
												OFFSET 0.295959 3.727692 -0.131651
											}
										}
									}
								}
								JOINT RightHandIndex1
								{
									OFFSET -14.190811 -0.254547 3.840278
									CHANNELS 3 Xrotation Yrotation Zrotation
									JOINT RightHandIndex2
									{
										OFFSET -3.551727 0.000000 -0.000000
										CHANNELS 3 Xrotation Yrotation Zrotation
										JOINT RightHandIndex3
										{
											OFFSET -2.894196 0.000000 0.000000
											CHANNELS 3 Xrotation Yrotation Zrotation
											End Site
											{
												OFFSET 1.000603 2.690872 0.366626
											}
										}
									}
								}
								JOINT RightHandMiddle1
								{
									OFFSET -13.776489 0.000000 0.000000
									CHANNELS 3 Xrotation Yrotation Zrotation
									JOINT RightHandMiddle2
									{
										OFFSET -3.438232 0.000000 0.000000
										CHANNELS 3 Xrotation Yrotation Zrotation
										JOINT RightHandMiddle3
										{
											OFFSET -3.691551 0.000000 0.000000
											CHANNELS 3 Xrotation Yrotation Zrotation
											End Site
											{
												OFFSET 1.082298 3.499527 0.457670
											}
										}
									}
								}
								JOINT RightHandRing1
								{
									OFFSET -13.966164 -0.268127 -3.067488
									CHANNELS 3 Xrotation Yrotation Zrotation
									JOINT RightHandRing2
									{
										OFFSET -3.162567 0.000000 0.000000
										CHANNELS 3 Xrotation Yrotation Zrotation
										JOINT RightHandRing3
										{
											OFFSET -3.324348 0.000000 0.000000
											CHANNELS 3 Xrotation Yrotation Zrotation
											End Site
											{
												OFFSET 0.861900 3.184998 0.405154
											}
										}
									}
								}
								JOINT RightHandPinky1
								{
									OFFSET -13.131393 -0.168503 -5.746925
									CHANNELS 3 Xrotation Yrotation Zrotation
									JOINT RightHandPinky2
									{
										OFFSET -2.849182 0.000000 0.000000
										CHANNELS 3 Xrotation Yrotation Zrotation
										JOINT RightHandPinky3
										{
											OFFSET -2.805038 0.000000 0.000000
											CHANNELS 3 Xrotation Yrotation Zrotation
											End Site
											{
												OFFSET 0.882500 2.642609 0.325652
											}
										}
									}
								}
							}
							JOINT Right_Sleeve
							{
								OFFSET -6.592125 -0.646545 0.805568
								CHANNELS 3 Xrotation Yrotation Zrotation
								End Site
								{
									OFFSET 0.000179 20.275787 -0.000000
								}
							}
						}
					}
				}
				JOINT Bind_Right_JacketString
				{
					OFFSET -3.534800 11.969597 7.200700
					CHANNELS 3 Xrotation Yrotation Zrotation
					JOINT Bind_Right_JacketString1
					{
						OFFSET -0.319900 -6.102600 2.794100
						CHANNELS 3 Xrotation Yrotation Zrotation
						End Site
						{
							OFFSET 0.000000 6.719452 0.000000
						}
					}
				}
				JOINT Bind_Left_JacketString
				{
					OFFSET 2.904800 11.969597 7.200700
					CHANNELS 3 Xrotation Yrotation Zrotation
					JOINT Bind_Left_JacketString1
					{
						OFFSET 0.364800 -5.904503 3.186800
						CHANNELS 3 Xrotation Yrotation Zrotation
						End Site
						{
							OFFSET 0.000000 6.719513 0.000000
						}
					}
				}
				JOINT HairE
				{
					OFFSET 5.915200 17.612701 -11.592200
					CHANNELS 3 Xrotation Yrotation Zrotation
					JOINT HairE1
					{
						OFFSET 0.289200 -7.171898 -1.284500
						CHANNELS 3 Xrotation Yrotation Zrotation
						End Site
						{
							OFFSET 0.000000 7.291756 0.000000
						}
					}
				}
				JOINT HairF
				{
					OFFSET -0.864800 17.612701 -11.592200
					CHANNELS 3 Xrotation Yrotation Zrotation
					JOINT HairF1
					{
						OFFSET 0.000000 -14.087097 -2.127501
						CHANNELS 3 Xrotation Yrotation Zrotation
						End Site
						{
							OFFSET 0.000000 14.246841 0.000000
						}
					}
				}
				JOINT HairG
				{
					OFFSET -8.087700 17.612701 -11.592200
					CHANNELS 3 Xrotation Yrotation Zrotation
					JOINT HairG1
					{
						OFFSET -0.293600 -6.081398 -0.910100
						CHANNELS 3 Xrotation Yrotation Zrotation
						End Site
						{
							OFFSET 0.000000 6.156120 0.000000
						}
					}
				}
			}
		}
	}
	JOINT Pouch
	{
		OFFSET 0.000000 4.394501 10.847300
		CHANNELS 3 Xrotation Yrotation Zrotation
		End Site
		{
			OFFSET 0.000000 21.880577 0.000000
		}
	}
	JOINT Bag
	{
		OFFSET -13.229000 4.813004 -0.593300
		CHANNELS 3 Xrotation Yrotation Zrotation
		End Site
		{
			OFFSET 0.000000 21.880577 0.000000
		}
	}
	JOINT OccupyGuyFacialAnim_Joint
	{
		OFFSET 1.000000 -70.206398 -1.655000
		CHANNELS 3 Xrotation Yrotation Zrotation
		End Site
		{
			OFFSET 0.000000 21.880577 0.000000
		}
	}
}
MOTION
Frames: 4
Frame Time: 0.016667
-1.398546 93.246819 215.662140 6.894109 -37.389241 19.125547 0.000000 -0.000003 -0.000000 -87.387571 -20.209367 21.060987 104.173458 16.570119 6.476233 -14.489790 0.841985 4.032469 -0.000001 0.000000 -0.000002 0.000001 0.000003 -0.000001 -87.660512 -24.350738 3.000417 110.420765 20.572168 4.429943 1.418696 4.915144 6.272063 0.000000 0.000000 -0.000001 -0.000001 0.000001 -0.000001 36.554086 5.897847 -28.030558 10.113551 4.487073 -5.651608 17.344355 -0.255004 0.868256 -12.219175 18.249668 -13.297130 -37.838654 -7.524092 1.760360 -0.000000 0.000000 0.000000 -0.000000 0.000000 0.000000 -0.000000 0.000000 0.000000 -0.000000 0.000000 0.000000 0.000001 0.000000 -0.000000 -0.000000 0.000000 0.000000 0.000001 0.000000 -0.000000 -0.000000 0.000000 0.000000 -0.000000 0.000000 0.000000 3.460656 -8.918317 -0.904751 -83.626808 1.219636 -12.071360 -339.578318 -61.813130 -343.756454 -7.849529 9.865834 25.085427 17.551582 -5.699178 -12.932258 10.850576 26.127716 8.644750 0.000000 0.000003 0.000000 13.980897 1.201585 -55.004374 0.370791 1.161702 -65.441880 -0.000001 0.000000 -0.000002 7.504737 1.174525 -63.778510 1.807879 1.475657 -64.568012 -0.000001 -0.000001 0.000000 8.574290 2.179113 -75.148979 -0.207609 1.009283 -57.855049 -0.000001 0.000003 -0.000001 10.030083 13.637106 -84.750223 0.877121 0.062345 -64.595469 -0.000000 -0.000001 0.000003 0.000002 0.000000 0.000000 7.814333 26.927345 -8.074468 -63.242736 -8.464378 33.803610 -75.905450 19.956800 56.360231 103.847781 -11.344606 -4.184681 -0.360664 0.058162 -0.543028 4.001296 -8.596761 -1.236489 -0.000001 0.000005 0.000001 1.178592 -0.282695 1.711515 -0.146680 -0.226833 7.547509 -0.000002 -0.000002 -0.000002 3.352586 -1.937790 -0.812890 0.311543 -0.271379 28.365055 0.000002 -0.000000 0.000001 2.261835 -7.957688 2.165571 0.288147 -0.079117 26.161655 0.000000 -0.000000 -0.000000 1.961596 -6.393495 2.504517 0.531424 0.722184 34.300588 0.000000 0.000001 0.000002 -0.000002 0.000001 0.000000 -0.000003 0.000000 -0.000001 -0.000001 0.000000 -0.000001 -0.000003 0.000000 -0.000001 -0.000003 0.000000 -0.000001 -0.000003 0.000000 -0.000001 -0.000001 0.000000 -0.000001 -0.000003 0.000000 -0.000001 -0.000003 0.000000 -0.000001 -0.000003 0.000000 -0.000001 -0.000001 0.000000 -0.000001 0.000000 -0.000003 -0.000000 0.000000 -0.000003 -0.000000 0.000000 -0.000003 -0.000000 
-1.155336 92.893921 219.114395 8.397578 -37.127163 19.599311 0.000001 -0.000004 -0.000000 -86.735514 -19.228970 21.720881 101.797324 14.918685 6.452280 -14.659340 1.149286 2.436385 -0.000000 -0.000000 -0.000002 -0.000001 0.000001 0.000000 -88.303609 -24.005576 3.244674 102.286283 22.484354 7.206335 -2.587362 4.158141 7.569532 -0.000001 0.000000 -0.000001 -0.000003 0.000003 0.000001 36.271986 6.152203 -27.498999 10.417178 4.343066 -5.637414 17.590068 -0.300816 0.846439 -11.986774 17.712581 -13.403262 -38.648694 -7.453904 1.396194 0.000000 -0.000000 -0.000000 0.000000 -0.000000 -0.000000 0.000000 -0.000000 -0.000000 0.000000 -0.000000 -0.000000 0.000000 -0.000000 -0.000000 0.000000 -0.000000 -0.000000 0.000000 -0.000000 -0.000000 0.000000 -0.000000 -0.000000 0.000000 -0.000000 -0.000000 3.732754 -8.938839 -0.897976 -82.664058 -0.098873 -10.383347 -346.709828 -62.155090 -350.113940 -8.715364 8.791292 25.759008 17.551582 -5.699176 -12.932255 10.850574 26.127721 8.644748 0.000001 0.000006 -0.000001 13.980897 1.201579 -55.004374 0.370791 1.161700 -65.441887 0.000001 0.000000 -0.000002 7.504735 1.174530 -63.778517 1.807884 1.475658 -64.568005 -0.000001 0.000001 0.000001 8.574289 2.179118 -75.148979 -0.207613 1.009285 -57.855049 -0.000000 0.000001 0.000000 10.030084 13.637110 -84.750223 0.877114 0.062342 -64.595469 -0.000001 0.000000 0.000001 0.000001 0.000001 0.000001 7.302802 26.569089 -6.881552 -60.118219 -8.940510 34.394101 -76.312734 20.173430 58.156616 101.670289 -13.677707 -5.595356 -0.360539 0.058161 -0.542840 4.001301 -8.596760 -1.236491 0.000002 0.000000 -0.000002 1.178581 -0.282257 0.826521 -0.148742 -0.225315 6.662548 0.000001 -0.000002 -0.000000 3.352637 -1.937396 -1.697914 0.311855 -0.271999 27.480078 0.000001 0.000001 -0.000004 2.261800 -7.957265 1.280580 0.287412 -0.081038 25.276665 -0.000001 0.000001 -0.000000 1.961567 -6.393091 1.619548 0.531212 0.722521 33.415594 0.000001 0.000002 0.000001 0.000000 -0.000002 -0.000002 -0.000000 -0.000000 -0.000000 -0.000000 -0.000000 -0.000001 -0.000000 -0.000000 0.000000 -0.000000 -0.000000 0.000000 -0.000000 -0.000000 -0.000000 -0.000000 -0.000000 -0.000000 -0.000000 -0.000000 0.000000 -0.000000 -0.000000 0.000000 -0.000000 -0.000000 -0.000000 -0.000000 -0.000000 -0.000000 0.000001 -0.000004 -0.000000 0.000001 -0.000004 -0.000000 0.000001 -0.000004 -0.000000 
-0.945309 92.449890 222.676407 9.802228 -36.731542 19.995271 0.000001 -0.000000 -0.000000 -85.684491 -18.221869 21.421078 98.677054 14.743144 6.905389 -14.506058 1.509688 0.797215 0.000000 -0.000000 -0.000003 0.000001 -0.000003 -0.000000 -87.206045 -22.000941 2.771418 91.618327 23.937253 11.515331 -4.614168 3.165651 9.110609 0.000001 0.000001 -0.000002 -0.000002 -0.000001 -0.000000 35.790936 6.419027 -26.907657 10.724711 4.198464 -5.583332 17.800923 -0.342640 0.829318 -11.305836 16.957794 -13.348739 -39.456104 -7.132158 0.943235 0.000002 0.000000 0.000000 0.000002 0.000000 0.000000 0.000002 0.000000 0.000000 0.000002 0.000000 -0.000000 0.000002 -0.000000 0.000000 0.000002 0.000000 -0.000000 0.000002 -0.000000 0.000000 0.000002 0.000000 0.000000 0.000002 0.000000 0.000000 4.015692 -8.916290 -0.887798 -82.276759 -1.094238 -8.977278 -352.924863 -62.243616 -355.786057 -9.353961 7.465088 26.072459 17.551583 -5.699179 -12.932255 10.850573 26.127721 8.644753 0.000001 0.000004 -0.000001 13.980898 1.201581 -55.004374 0.370791 1.161699 -65.441880 -0.000001 0.000002 -0.000002 7.504736 1.174530 -63.778517 1.807883 1.475655 -64.568012 0.000001 0.000000 0.000001 8.574289 2.179117 -75.148979 -0.207611 1.009282 -57.855049 0.000001 0.000003 -0.000001 10.030085 13.637110 -84.750217 0.877119 0.062344 -64.595469 0.000001 -0.000001 0.000003 0.000003 0.000000 0.000000 6.746345 26.067566 -5.641317 -56.516486 -9.132691 35.083919 -76.680642 20.592529 59.887044 98.889002 -15.813143 -7.286368 -0.360436 0.058166 -0.542658 4.001307 -8.596747 -1.236495 -0.000001 0.000003 -0.000000 1.177312 -0.281988 0.225307 -0.150304 -0.224060 6.061328 0.000003 0.000001 0.000001 3.352815 -1.937112 -2.299104 0.310520 -0.273208 26.878872 0.000002 0.000004 -0.000000 2.261795 -7.956977 0.679373 0.286935 -0.082345 24.675494 0.000000 -0.000002 0.000005 1.961569 -6.392783 1.018346 0.532388 0.723585 32.814425 0.000000 0.000001 0.000004 0.000000 -0.000000 -0.000001 -0.000001 0.000000 -0.000001 -0.000001 -0.000001 -0.000000 -0.000001 0.000000 -0.000001 -0.000001 0.000000 -0.000001 -0.000001 0.000000 -0.000001 -0.000001 -0.000001 -0.000000 -0.000001 0.000000 -0.000001 -0.000001 0.000000 -0.000001 -0.000001 0.000000 -0.000001 -0.000001 -0.000001 -0.000000 0.000001 -0.000000 -0.000000 0.000001 -0.000000 -0.000000 0.000001 -0.000000 -0.000000 
-0.778252 91.903831 226.341614 11.079236 -36.211081 20.327025 -0.000000 -0.000001 0.000000 -84.375888 -16.909841 20.999835 95.024952 15.162335 7.593994 -14.852825 1.791101 -0.555935 0.000001 -0.000000 0.000001 0.000002 0.000003 -0.000001 -84.704448 -18.032181 2.927879 80.059092 22.739247 16.405057 -3.809866 2.022624 10.774197 0.000002 -0.000001 0.000003 0.000001 0.000001 -0.000003 35.123312 6.671569 -26.273392 11.018728 4.045009 -5.488547 17.963816 -0.390538 0.823579 -10.228593 16.066920 -13.225068 -40.188908 -6.646899 0.502569 0.000001 -0.000000 0.000000 0.000001 -0.000000 0.000000 0.000001 -0.000000 -0.000000 0.000001 -0.000000 -0.000000 -0.000001 -0.000000 0.000000 0.000001 -0.000000 -0.000000 -0.000001 -0.000000 0.000000 0.000001 -0.000000 0.000000 0.000001 -0.000000 0.000000 4.292263 -8.864046 -0.877264 -82.115307 -1.901182 -7.653562 -358.213041 -62.124464 -360.712208 -10.044894 6.053069 26.102963 17.551576 -5.699179 -12.932251 10.850576 26.127719 8.644751 0.000001 0.000001 -0.000001 13.980895 1.201582 -55.004374 0.370792 1.161701 -65.441880 -0.000000 -0.000003 0.000001 7.504739 1.174527 -63.778510 1.807881 1.475657 -64.568012 0.000003 0.000002 -0.000001 8.574286 2.179114 -75.148979 -0.207610 1.009287 -57.855049 -0.000003 0.000003 0.000001 10.030081 13.637110 -84.750217 0.877120 0.062346 -64.595469 -0.000004 -0.000003 -0.000003 0.000001 0.000001 0.000000 6.167918 25.450308 -4.367982 -52.538273 -9.038838 35.874377 -76.979135 21.195510 61.458978 95.621501 -17.694162 -9.145838 -0.360324 0.058178 -0.542499 4.001291 -8.596772 -1.236507 0.000001 -0.000001 0.000000 1.177748 -0.281641 -0.050746 -0.149893 -0.223228 5.785269 0.000001 0.000002 0.000004 3.352993 -1.936993 -2.575184 0.309746 -0.272611 26.602820 0.000001 0.000001 0.000001 2.262873 -7.956887 0.403463 0.287548 -0.082918 24.399401 0.000004 0.000001 0.000002 1.961575 -6.392693 0.742262 0.533003 0.724112 32.538270 -0.000002 0.000002 -0.000001 0.000004 0.000002 0.000000 0.000001 -0.000000 -0.000001 0.000001 -0.000000 0.000000 0.000001 -0.000000 0.000000 0.000001 -0.000000 0.000000 0.000001 -0.000000 -0.000001 0.000001 -0.000000 0.000000 0.000001 -0.000000 0.000000 0.000001 -0.000000 0.000000 0.000001 -0.000000 -0.000001 0.000001 -0.000000 0.000000 -0.000000 -0.000001 0.000000 -0.000000 -0.000001 0.000000 -0.000000 -0.000001 0.000000 
